<?xml version="1.0" encoding="utf-8"?>
<!-- Generator: Adobe Illustrator 26.4.1, SVG Export Plug-In . SVG Version: 6.00 Build 0)  -->
<svg version="1.1" id="Layer_1" xmlns="http://www.w3.org/2000/svg" xmlns:xlink="http://www.w3.org/1999/xlink" x="0px" y="0px"
	 viewBox="0 0 500 500" style="enable-background:new 0 0 500 500;" xml:space="preserve">
<style type="text/css">
	.st0{fill:#0092B9;}
	.st1{fill:#0092B9;stroke:#FFFFFF;stroke-width:0.75;stroke-miterlimit:10;}
	.st2{fill:none;stroke:#FFFFFF;stroke-width:2;stroke-miterlimit:10;}
</style>
<path class="st0" d="M265.91,440.1h-31.83c-1.71,0-3.1-1.58-3.1-3.49c0-89.87,0-179.68,0-269.56c0-15.22,0-30.44,0-45.6
	c0-1.91,1.38-3.49,3.1-3.49h31.83c1.71,0,3.1,1.58,3.1,3.49v315.15C269.01,438.52,267.63,440.1,265.91,440.1z"/>
<circle class="st0" cx="249.97" cy="80.47" r="45.6"/>
<circle class="st1" cx="249.97" cy="80.47" r="33.27"/>
<path class="st0" d="M491.65,162.24v6.85c0,8.62-6.99,15.62-15.62,15.62H23.96c-8.62,0-15.62-6.99-15.62-15.62v-6.85
	c0-8.62,6.99-15.62,15.62-15.62h452.07C484.66,146.63,491.65,153.62,491.65,162.24z"/>
<path class="st0" d="M445.6,216.93v6.85c0,8.62-6.99,15.62-15.62,15.62H70.02c-8.62,0-15.62-6.99-15.62-15.62v-6.85
	c0-8.62,6.99-15.62,15.62-15.62h359.96C438.6,201.32,445.6,208.31,445.6,216.93z"/>
<path class="st0" d="M410.41,275.57v6.85c0,8.62-6.99,15.62-15.62,15.62H105.14c-8.62,0-15.62-6.99-15.62-15.62v-6.85
	c0-8.62,6.99-15.62,15.62-15.62h289.65C403.42,259.96,410.41,266.95,410.41,275.57z"/>
<path class="st0" d="M228.68,275.9c-16.54-26.22-33.01-52.45-49.55-78.67c-4.88-7.78-5.14-17.59-0.72-25.63
	c4.41-8.04,12.91-13.05,22.07-13.05h99.1c19.83,0,31.89,21.88,21.35,38.61l-49.55,78.67c-9.88,15.68-32.75,15.68-42.63,0
	L228.68,275.9z"/>
<path class="st0" d="M248.06,464.09l-16.6-25.76c-0.99-1.52,0.13-3.56,1.91-3.56h33.27c1.84,0,2.9,1.98,1.91,3.56l-16.6,25.76
	c-0.92,1.38-2.97,1.38-3.82,0H248.06z"/>
<path class="st2" d="M167.01,130.75h-0.26"/>
</svg>
