<?xml version="1.0" encoding="utf-8"?>
<!-- Generator: Adobe Illustrator 26.4.1, SVG Export Plug-In . SVG Version: 6.00 Build 0)  -->
<svg version="1.1" id="Layer_1" xmlns="http://www.w3.org/2000/svg" xmlns:xlink="http://www.w3.org/1999/xlink" x="0px" y="0px"
	 viewBox="0 0 485.48 68.87" style="enable-background:new 0 0 485.48 68.87;" xml:space="preserve">
<style type="text/css">
	.st0{fill:#0092B9;}
	.st1{fill:#0092B9;stroke:#FFFFFF;stroke-width:0.75;stroke-miterlimit:10;}
	.st2{fill:none;stroke:#FFFFFF;stroke-width:2;stroke-miterlimit:10;}
	.st3{font-family:'AvenirNext-Regular';}
	.st4{font-size:46.7932px;}
</style>
<path class="st0" d="M44.52,63.29h-4.83c-0.26,0-0.47-0.24-0.47-0.53c0-13.64,0-27.27,0-40.91c0-2.31,0-4.62,0-6.92
	c0-0.29,0.21-0.53,0.47-0.53h4.83c0.26,0,0.47,0.24,0.47,0.53v47.84C45,63.06,44.79,63.29,44.52,63.29z"/>
<circle class="st0" cx="42.11" cy="8.71" r="6.92"/>
<circle class="st1" cx="42.11" cy="8.71" r="5.05"/>
<path class="st0" d="M5.43,22.17v-1.05c0-1.31,1.06-2.37,2.37-2.37h68.61c1.31,0,2.37,1.06,2.37,2.37v1.05
	c0,1.31-1.06,2.37-2.37,2.37H7.8C6.49,24.54,5.43,23.48,5.43,22.17z"/>
<path class="st0" d="M12.42,30.47v-1.05c0-1.31,1.06-2.37,2.37-2.37h54.64c1.31,0,2.37,1.06,2.37,2.37v1.05
	c0,1.31-1.06,2.37-2.37,2.37H14.79C13.48,32.84,12.42,31.78,12.42,30.47z"/>
<path class="st0" d="M17.76,39.37v-1.05c0-1.31,1.06-2.37,2.37-2.37h43.96c1.31,0,2.37,1.06,2.37,2.37v1.05
	c0,1.31-1.06,2.37-2.37,2.37H20.13C18.82,41.74,17.76,40.68,17.76,39.37z"/>
<path class="st0" d="M38.87,38.37c-2.51-3.98-5.01-7.96-7.52-11.94c-0.74-1.18-0.78-2.67-0.11-3.89s1.96-1.98,3.35-1.98h15.04
	c3.01,0,4.84,3.32,3.24,5.86l-7.52,11.94C43.84,40.75,40.37,40.75,38.87,38.37z"/>
<path class="st0" d="M41.82,66.94l-2.52-3.91c-0.15-0.23,0.02-0.54,0.29-0.54h5.05c0.28,0,0.44,0.3,0.29,0.54l-2.52,3.91
	C42.26,67.15,41.95,67.15,41.82,66.94z"/>
<path class="st2" d="M29.52,16.34c-0.01,0-0.04,0-0.04,0"/>
<text transform="matrix(1 0 0 1 84.8889 51.529)" class="st0 st3 st4">Fjordens Lægehus</text>
</svg>
