<?xml version="1.0" encoding="UTF-8"?>
<svg id="Layer_1" data-name="Layer 1" xmlns="http://www.w3.org/2000/svg" viewBox="0 0 474.48 68.97">
  <defs>
    <style>
      .cls-1 {
        letter-spacing: 0em;
      }

      .cls-2, .cls-3, .cls-4 {
        fill: #0092b9;
      }

      .cls-5 {
        letter-spacing: -.02em;
      }

      .cls-3 {
        font-family: AvenirNext-Regular, 'Avenir Next';
        font-size: 46.79px;
      }

      .cls-6 {
        fill: none;
        stroke-width: 2px;
      }

      .cls-6, .cls-4 {
        stroke: #fff;
        stroke-miterlimit: 10;
      }

      .cls-4 {
        stroke-width: .75px;
      }
    </style>
  </defs>
  <path class="cls-2" d="M39.09,61.5h-4.83c-.26,0-.47-.24-.47-.53,0-13.64,0-27.27,0-40.91,0-2.31,0-4.62,0-6.92,0-.29,.21-.53,.47-.53h4.83c.26,0,.47,.24,.47,.53V60.97c0,.29-.21,.53-.47,.53Z"/>
  <circle class="cls-2" cx="36.67" cy="6.92" r="6.92"/>
  <circle class="cls-4" cx="36.67" cy="6.92" r="5.05"/>
  <rect class="cls-2" x="33.78" y="-16.82" width="5.78" height="73.35" rx="2.37" ry="2.37" transform="translate(56.53 -16.82) rotate(90)"/>
  <rect class="cls-2" x="33.78" y="-1.53" width="5.78" height="59.37" rx="2.37" ry="2.37" transform="translate(64.83 -8.52) rotate(90)"/>
  <rect class="cls-2" x="33.78" y="12.71" width="5.78" height="48.7" rx="2.37" ry="2.37" transform="translate(73.73 .38) rotate(90)"/>
  <path class="cls-2" d="M33.44,36.58c-2.51-3.98-5.01-7.96-7.52-11.94-.74-1.18-.78-2.67-.11-3.89s1.96-1.98,3.35-1.98h15.04c3.01,0,4.84,3.32,3.24,5.86l-7.52,11.94c-1.5,2.38-4.97,2.38-6.47,0Z"/>
  <path class="cls-2" d="M36.38,65.14l-2.52-3.91c-.15-.23,.02-.54,.29-.54h5.05c.28,0,.44,.3,.29,.54l-2.52,3.91c-.14,.21-.45,.21-.58,0Z"/>
  <path class="cls-6" d="M24.08,14.55h-.04"/>
  <text class="cls-3" transform="translate(79.46 49.74)"><tspan x="0" y="0">Fjo</tspan><tspan class="cls-5" x="66.63" y="0">r</tspan><tspan class="cls-1" x="82.64" y="0">dens Lægehus</tspan></text>
</svg>